<svg width="208" height="93" viewBox="0 0 208 93" fill="none" xmlns="http://www.w3.org/2000/svg">
<g filter="url(#filter0_d_10404_43)">
<path d="M204 4.99999C204 2.23857 201.761 -1.957e-07 199 -4.37112e-07L9 -1.70474e-05C6.23857 -1.72889e-05 4 2.23856 4 4.99998L3.99999 72.026C3.99999 74.7875 6.23856 77.026 8.99999 77.026L110.616 77.026C111.711 77.026 112.775 77.385 113.645 78.0479L120.998 83.6465C122.817 85.0311 125.343 85.0063 127.134 83.5864L134.043 78.1081C134.927 77.4074 136.022 77.026 137.15 77.026L199 77.0261C201.761 77.0261 204 74.7875 204 72.0261L204 4.99999Z" fill="#FC9B09"/>
</g>
<path d="M28.632 26.108C27.384 26.108 26.256 25.832 25.248 25.28C24.252 24.728 23.466 23.966 22.89 22.994C22.326 22.01 22.044 20.912 22.044 19.7C22.044 18.488 22.326 17.396 22.89 16.424C23.466 15.44 24.258 14.672 25.266 14.12C26.274 13.568 27.402 13.292 28.65 13.292C29.586 13.292 30.45 13.448 31.242 13.76C32.034 14.072 32.706 14.528 33.258 15.128L32.412 15.974C31.428 14.978 30.186 14.48 28.686 14.48C27.69 14.48 26.784 14.708 25.968 15.164C25.152 15.62 24.51 16.244 24.042 17.036C23.586 17.828 23.358 18.716 23.358 19.7C23.358 20.684 23.586 21.572 24.042 22.364C24.51 23.156 25.152 23.78 25.968 24.236C26.784 24.692 27.69 24.92 28.686 24.92C30.198 24.92 31.44 24.416 32.412 23.408L33.258 24.254C32.706 24.854 32.028 25.316 31.224 25.64C30.432 25.952 29.568 26.108 28.632 26.108ZM42.0991 17.666H38.5171V26H37.2391V17.666H33.6571V16.532H42.0991V17.666ZM47.4135 26.09C46.5015 26.09 45.6795 25.886 44.9475 25.478C44.2155 25.058 43.6395 24.482 43.2195 23.75C42.7995 23.018 42.5895 22.19 42.5895 21.266C42.5895 20.342 42.7995 19.514 43.2195 18.782C43.6395 18.05 44.2155 17.48 44.9475 17.072C45.6795 16.664 46.5015 16.46 47.4135 16.46C48.3255 16.46 49.1475 16.664 49.8795 17.072C50.6115 17.48 51.1815 18.05 51.5895 18.782C52.0095 19.514 52.2195 20.342 52.2195 21.266C52.2195 22.19 52.0095 23.018 51.5895 23.75C51.1815 24.482 50.6115 25.058 49.8795 25.478C49.1475 25.886 48.3255 26.09 47.4135 26.09ZM47.4135 24.956C48.0855 24.956 48.6855 24.806 49.2135 24.506C49.7535 24.194 50.1735 23.756 50.4735 23.192C50.7735 22.628 50.9235 21.986 50.9235 21.266C50.9235 20.546 50.7735 19.904 50.4735 19.34C50.1735 18.776 49.7535 18.344 49.2135 18.044C48.6855 17.732 48.0855 17.576 47.4135 17.576C46.7415 17.576 46.1355 17.732 45.5955 18.044C45.0675 18.344 44.6475 18.776 44.3355 19.34C44.0355 19.904 43.8855 20.546 43.8855 21.266C43.8855 21.986 44.0355 22.628 44.3355 23.192C44.6475 23.756 45.0675 24.194 45.5955 24.506C46.1355 24.806 46.7415 24.956 47.4135 24.956ZM54.9508 16.532H56.2288V24.056L62.5468 16.532H63.6808V26H62.4028V18.476L56.1028 26H54.9508V16.532ZM77.9274 16.532V26H76.7574V18.512L72.9234 24.848H72.3474L68.5134 18.494V26H67.3434V16.532H68.6394L72.6534 23.354L76.7394 16.532H77.9274ZM85.4701 26.09C84.5581 26.09 83.7361 25.886 83.0041 25.478C82.2721 25.058 81.6961 24.482 81.2761 23.75C80.8561 23.018 80.6461 22.19 80.6461 21.266C80.6461 20.342 80.8561 19.514 81.2761 18.782C81.6961 18.05 82.2721 17.48 83.0041 17.072C83.7361 16.664 84.5581 16.46 85.4701 16.46C86.3821 16.46 87.2041 16.664 87.9361 17.072C88.6681 17.48 89.2381 18.05 89.6461 18.782C90.0661 19.514 90.2761 20.342 90.2761 21.266C90.2761 22.19 90.0661 23.018 89.6461 23.75C89.2381 24.482 88.6681 25.058 87.9361 25.478C87.2041 25.886 86.3821 26.09 85.4701 26.09ZM85.4701 24.956C86.1421 24.956 86.7421 24.806 87.2701 24.506C87.8101 24.194 88.2301 23.756 88.5301 23.192C88.8301 22.628 88.9801 21.986 88.9801 21.266C88.9801 20.546 88.8301 19.904 88.5301 19.34C88.2301 18.776 87.8101 18.344 87.2701 18.044C86.7421 17.732 86.1421 17.576 85.4701 17.576C84.7981 17.576 84.1921 17.732 83.6521 18.044C83.1241 18.344 82.7041 18.776 82.3921 19.34C82.0921 19.904 81.9421 20.546 81.9421 21.266C81.9421 21.986 82.0921 22.628 82.3921 23.192C82.7041 23.756 83.1241 24.194 83.6521 24.506C84.1921 24.806 84.7981 24.956 85.4701 24.956ZM96.9675 26.09C96.0315 26.09 95.1915 25.886 94.4475 25.478C93.7155 25.07 93.1395 24.5 92.7195 23.768C92.2995 23.024 92.0895 22.19 92.0895 21.266C92.0895 20.342 92.2995 19.514 92.7195 18.782C93.1395 18.05 93.7155 17.48 94.4475 17.072C95.1915 16.664 96.0315 16.46 96.9675 16.46C97.7835 16.46 98.5095 16.622 99.1455 16.946C99.7935 17.258 100.303 17.72 100.675 18.332L99.7215 18.98C99.4095 18.512 99.0135 18.164 98.5335 17.936C98.0535 17.696 97.5315 17.576 96.9675 17.576C96.2835 17.576 95.6655 17.732 95.1135 18.044C94.5735 18.344 94.1475 18.776 93.8355 19.34C93.5355 19.904 93.3855 20.546 93.3855 21.266C93.3855 21.998 93.5355 22.646 93.8355 23.21C94.1475 23.762 94.5735 24.194 95.1135 24.506C95.6655 24.806 96.2835 24.956 96.9675 24.956C97.5315 24.956 98.0535 24.842 98.5335 24.614C99.0135 24.386 99.4095 24.038 99.7215 23.57L100.675 24.218C100.303 24.83 99.7935 25.298 99.1455 25.622C98.4975 25.934 97.7715 26.09 96.9675 26.09ZM109.634 17.666H106.052V26H104.774V17.666H101.192V16.532H109.634V17.666ZM115.55 19.88C116.738 19.892 117.638 20.156 118.25 20.672C118.874 21.188 119.186 21.932 119.186 22.904C119.186 23.912 118.85 24.686 118.178 25.226C117.518 25.766 116.558 26.03 115.298 26.018L111.482 26V16.532H112.76V19.844L115.55 19.88ZM115.226 25.046C116.102 25.058 116.762 24.884 117.206 24.524C117.662 24.152 117.89 23.612 117.89 22.904C117.89 22.208 117.668 21.692 117.224 21.356C116.78 21.02 116.114 20.846 115.226 20.834L112.76 20.798V25.01L115.226 25.046ZM121.715 18.422C121.451 18.422 121.223 18.326 121.031 18.134C120.851 17.942 120.761 17.708 120.761 17.432C120.761 17.156 120.851 16.928 121.031 16.748C121.223 16.556 121.451 16.46 121.715 16.46C121.979 16.46 122.207 16.556 122.399 16.748C122.591 16.928 122.687 17.156 122.687 17.432C122.687 17.708 122.591 17.942 122.399 18.134C122.207 18.326 121.979 18.422 121.715 18.422ZM121.715 26.09C121.451 26.09 121.223 25.994 121.031 25.802C120.851 25.61 120.761 25.376 120.761 25.1C120.761 24.824 120.851 24.596 121.031 24.416C121.223 24.224 121.451 24.128 121.715 24.128C121.979 24.128 122.207 24.224 122.399 24.416C122.591 24.596 122.687 24.824 122.687 25.1C122.687 25.376 122.591 25.61 122.399 25.802C122.207 25.994 121.979 26.09 121.715 26.09Z" fill="white"/>
<path d="M32.02 40V61H26.08V44.59H22.18V40H32.02ZM43.0382 47.65C45.9782 47.65 48.1482 48.25 49.5482 49.45C50.9682 50.65 51.6782 52.25 51.6782 54.25C51.6782 55.55 51.3382 56.75 50.6582 57.85C49.9982 58.93 48.9782 59.8 47.5982 60.46C46.2382 61.1 44.5482 61.42 42.5282 61.42C41.0482 61.42 39.5782 61.24 38.1182 60.88C36.6782 60.52 35.4382 60.01 34.3982 59.35L36.5282 54.88C37.3682 55.44 38.2882 55.87 39.2882 56.17C40.3082 56.47 41.3282 56.62 42.3482 56.62C43.3682 56.62 44.1782 56.43 44.7782 56.05C45.3982 55.65 45.7082 55.1 45.7082 54.4C45.7082 53.7 45.4082 53.17 44.8082 52.81C44.2082 52.45 43.1482 52.27 41.6282 52.27H35.9282L36.9782 40H50.3582V44.59H41.8982L41.6282 47.65H43.0382ZM62.6709 61.42C60.8709 61.42 59.2709 60.99 57.8709 60.13C56.4709 59.27 55.3709 58.02 54.5709 56.38C53.7909 54.72 53.4009 52.76 53.4009 50.5C53.4009 48.24 53.7909 46.29 54.5709 44.65C55.3709 42.99 56.4709 41.73 57.8709 40.87C59.2709 40.01 60.8709 39.58 62.6709 39.58C64.4509 39.58 66.0409 40.01 67.4409 40.87C68.8409 41.73 69.9309 42.99 70.7109 44.65C71.5109 46.29 71.9109 48.24 71.9109 50.5C71.9109 52.76 71.5109 54.72 70.7109 56.38C69.9309 58.02 68.8409 59.27 67.4409 60.13C66.0409 60.99 64.4509 61.42 62.6709 61.42ZM62.6709 56.56C63.6709 56.56 64.4609 56.08 65.0409 55.12C65.6409 54.14 65.9409 52.6 65.9409 50.5C65.9409 48.4 65.6409 46.87 65.0409 45.91C64.4609 44.93 63.6709 44.44 62.6709 44.44C61.6509 44.44 60.8409 44.93 60.2409 45.91C59.6609 46.87 59.3709 48.4 59.3709 50.5C59.3709 52.6 59.6609 54.14 60.2409 55.12C60.8409 56.08 61.6509 56.56 62.6709 56.56ZM83.208 61.42C81.408 61.42 79.808 60.99 78.408 60.13C77.008 59.27 75.908 58.02 75.108 56.38C74.328 54.72 73.938 52.76 73.938 50.5C73.938 48.24 74.328 46.29 75.108 44.65C75.908 42.99 77.008 41.73 78.408 40.87C79.808 40.01 81.408 39.58 83.208 39.58C84.988 39.58 86.578 40.01 87.978 40.87C89.378 41.73 90.468 42.99 91.248 44.65C92.048 46.29 92.448 48.24 92.448 50.5C92.448 52.76 92.048 54.72 91.248 56.38C90.468 58.02 89.378 59.27 87.978 60.13C86.578 60.99 84.988 61.42 83.208 61.42ZM83.208 56.56C84.208 56.56 84.998 56.08 85.578 55.12C86.178 54.14 86.478 52.6 86.478 50.5C86.478 48.4 86.178 46.87 85.578 45.91C84.998 44.93 84.208 44.44 83.208 44.44C82.188 44.44 81.378 44.93 80.778 45.91C80.198 46.87 79.908 48.4 79.908 50.5C79.908 52.6 80.198 54.14 80.778 55.12C81.378 56.08 82.188 56.56 83.208 56.56ZM103.115 54.22V55.81H109.505V58.72H103.115V61H97.1451V58.72H94.3551V55.81H97.1451V40H106.745C109.685 40 111.975 40.6 113.615 41.8C115.255 43 116.075 44.77 116.075 47.11C116.075 49.45 115.255 51.22 113.615 52.42C111.975 53.62 109.685 54.22 106.745 54.22H103.115ZM110.075 47.17C110.075 46.37 109.775 45.76 109.175 45.34C108.595 44.9 107.765 44.68 106.685 44.68H103.115V49.69H106.685C107.765 49.69 108.595 49.47 109.175 49.03C109.775 48.59 110.075 47.97 110.075 47.17Z" fill="white"/>
<defs>
<filter id="filter0_d_10404_43" x="0" y="0" width="208" height="92.6685" filterUnits="userSpaceOnUse" color-interpolation-filters="sRGB">
<feFlood flood-opacity="0" result="BackgroundImageFix"/>
<feColorMatrix in="SourceAlpha" type="matrix" values="0 0 0 0 0 0 0 0 0 0 0 0 0 0 0 0 0 0 127 0" result="hardAlpha"/>
<feOffset dy="4"/>
<feGaussianBlur stdDeviation="2"/>
<feColorMatrix type="matrix" values="0 0 0 0 0 0 0 0 0 0 0 0 0 0 0 0 0 0 0.1 0"/>
<feBlend mode="normal" in2="BackgroundImageFix" result="effect1_dropShadow_10404_43"/>
<feBlend mode="normal" in="SourceGraphic" in2="effect1_dropShadow_10404_43" result="shape"/>
</filter>
</defs>
</svg>
