<svg width="208" height="93" fill="none" xmlns="http://www.w3.org/2000/svg"><g filter="url(#filter0_d_10404_43)"><path d="M204 5a5 5 0 00-5-5H9a5 5 0 00-5 5v67.026a5 5 0 005 5h101.616c1.095 0 2.159.359 3.029 1.022l7.353 5.599a5.001 5.001 0 006.136-.06l6.909-5.479a5.002 5.002 0 013.107-1.082H199a5 5 0 005-5V5z" fill="#FC9B09"/></g><path d="M28.632 26.108c-1.248 0-2.376-.276-3.384-.828a6.165 6.165 0 01-2.358-2.286c-.564-.984-.846-2.082-.846-3.294 0-1.212.282-2.304.846-3.276a6.092 6.092 0 012.376-2.304c1.008-.552 2.136-.828 3.384-.828.936 0 1.8.156 2.592.468a5.373 5.373 0 012.016 1.368l-.846.846c-.984-.996-2.226-1.494-3.726-1.494-.996 0-1.902.228-2.718.684a5.064 5.064 0 00-1.926 1.872c-.456.792-.684 1.68-.684 2.664 0 .984.228 1.872.684 2.664a5.064 5.064 0 001.926 1.872c.816.456 1.722.684 2.718.684 1.512 0 2.754-.504 3.726-1.512l.846.846a5.526 5.526 0 01-2.034 1.386c-.792.312-1.656.468-2.592.468zm13.467-8.442h-3.582V26H37.24v-8.334h-3.582v-1.134H42.1v1.134zm5.315 8.424c-.913 0-1.735-.204-2.467-.612a4.594 4.594 0 01-1.728-1.728c-.42-.732-.63-1.56-.63-2.484 0-.924.21-1.752.63-2.484a4.465 4.465 0 011.728-1.71c.732-.408 1.554-.612 2.466-.612.913 0 1.735.204 2.467.612a4.34 4.34 0 011.71 1.71c.42.732.63 1.56.63 2.484 0 .924-.21 1.752-.63 2.484a4.465 4.465 0 01-1.71 1.728c-.733.408-1.555.612-2.467.612zm0-1.134c.672 0 1.271-.15 1.8-.45.54-.312.96-.75 1.26-1.314.3-.564.45-1.206.45-1.926s-.15-1.362-.45-1.926c-.3-.564-.72-.996-1.26-1.296-.529-.312-1.128-.468-1.8-.468-.672 0-1.279.156-1.819.468a3.29 3.29 0 00-1.26 1.296c-.3.564-.45 1.206-.45 1.926s.15 1.362.45 1.926a3.406 3.406 0 001.26 1.314c.54.3 1.147.45 1.819.45zm7.537-8.424h1.278v7.524l6.318-7.524h1.134V26h-1.278v-7.524L56.103 26H54.95v-9.468zm22.976 0V26h-1.17v-7.488l-3.834 6.336h-.576l-3.834-6.354V26h-1.17v-9.468h1.296l4.014 6.822 4.086-6.822h1.188zm7.543 9.558c-.912 0-1.734-.204-2.466-.612a4.594 4.594 0 01-1.728-1.728c-.42-.732-.63-1.56-.63-2.484 0-.924.21-1.752.63-2.484a4.465 4.465 0 011.728-1.71c.732-.408 1.554-.612 2.466-.612.912 0 1.734.204 2.466.612a4.34 4.34 0 011.71 1.71c.42.732.63 1.56.63 2.484 0 .924-.21 1.752-.63 2.484a4.465 4.465 0 01-1.71 1.728c-.732.408-1.554.612-2.466.612zm0-1.134c.672 0 1.272-.15 1.8-.45.54-.312.96-.75 1.26-1.314.3-.564.45-1.206.45-1.926s-.15-1.362-.45-1.926c-.3-.564-.72-.996-1.26-1.296-.528-.312-1.128-.468-1.8-.468-.672 0-1.278.156-1.818.468-.528.3-.948.732-1.26 1.296-.3.564-.45 1.206-.45 1.926s.15 1.362.45 1.926a3.406 3.406 0 001.26 1.314c.54.3 1.146.45 1.818.45zm11.498 1.134c-.937 0-1.776-.204-2.52-.612a4.465 4.465 0 01-1.728-1.71c-.42-.744-.63-1.578-.63-2.502 0-.924.21-1.752.63-2.484a4.465 4.465 0 011.728-1.71c.744-.408 1.584-.612 2.52-.612.816 0 1.541.162 2.177.486a3.56 3.56 0 011.53 1.386l-.953.648a2.917 2.917 0 00-1.188-1.044 3.452 3.452 0 00-1.567-.36c-.683 0-1.302.156-1.853.468-.54.3-.967.732-1.279 1.296-.3.564-.45 1.206-.45 1.926 0 .732.15 1.38.45 1.944a3.4 3.4 0 001.279 1.296c.551.3 1.17.45 1.853.45.564 0 1.087-.114 1.567-.342.48-.228.875-.576 1.188-1.044l.953.648a3.678 3.678 0 01-1.53 1.404c-.647.312-1.373.468-2.177.468zm12.666-8.424h-3.582V26h-1.278v-8.334h-3.582v-1.134h8.442v1.134zm5.916 2.214c1.188.012 2.088.276 2.7.792.624.516.936 1.26.936 2.232 0 1.008-.336 1.782-1.008 2.322-.66.54-1.62.804-2.88.792L111.482 26v-9.468h1.278v3.312l2.79.036zm-.324 5.166c.876.012 1.536-.162 1.98-.522.456-.372.684-.912.684-1.62 0-.696-.222-1.212-.666-1.548-.444-.336-1.11-.51-1.998-.522l-2.466-.036v4.212l2.466.036zm6.489-6.624a.934.934 0 01-.684-.288.989.989 0 01-.27-.702c0-.276.09-.504.27-.684a.934.934 0 01.684-.288c.264 0 .492.096.684.288.192.18.288.408.288.684 0 .276-.096.51-.288.702a.934.934 0 01-.684.288zm0 7.668a.934.934 0 01-.684-.288.989.989 0 01-.27-.702c0-.276.09-.504.27-.684a.934.934 0 01.684-.288c.264 0 .492.096.684.288.192.18.288.408.288.684 0 .276-.096.51-.288.702a.934.934 0 01-.684.288zM32.02 40v21h-5.94V44.59h-3.9V40h9.84zm11.018 7.65c2.94 0 5.11.6 6.51 1.8 1.42 1.2 2.13 2.8 2.13 4.8 0 1.3-.34 2.5-1.02 3.6-.66 1.08-1.68 1.95-3.06 2.61-1.36.64-3.05.96-5.07.96-1.48 0-2.95-.18-4.41-.54-1.44-.36-2.68-.87-3.72-1.53l2.13-4.47c.84.56 1.76.99 2.76 1.29 1.02.3 2.04.45 3.06.45s1.83-.19 2.43-.57c.62-.4.93-.95.93-1.65s-.3-1.23-.9-1.59c-.6-.36-1.66-.54-3.18-.54h-5.7L36.978 40h13.38v4.59h-8.46l-.27 3.06h1.41zm19.633 13.77c-1.8 0-3.4-.43-4.8-1.29-1.4-.86-2.5-2.11-3.3-3.75-.78-1.66-1.17-3.62-1.17-5.88s.39-4.21 1.17-5.85c.8-1.66 1.9-2.92 3.3-3.78 1.4-.86 3-1.29 4.8-1.29 1.78 0 3.37.43 4.77 1.29 1.4.86 2.49 2.12 3.27 3.78.8 1.64 1.2 3.59 1.2 5.85s-.4 4.22-1.2 5.88c-.78 1.64-1.87 2.89-3.27 3.75-1.4.86-2.99 1.29-4.77 1.29zm0-4.86c1 0 1.79-.48 2.37-1.44.6-.98.9-2.52.9-4.62s-.3-3.63-.9-4.59c-.58-.98-1.37-1.47-2.37-1.47-1.02 0-1.83.49-2.43 1.47-.58.96-.87 2.49-.87 4.59 0 2.1.29 3.64.87 4.62.6.96 1.41 1.44 2.43 1.44zm20.537 4.86c-1.8 0-3.4-.43-4.8-1.29-1.4-.86-2.5-2.11-3.3-3.75-.78-1.66-1.17-3.62-1.17-5.88s.39-4.21 1.17-5.85c.8-1.66 1.9-2.92 3.3-3.78 1.4-.86 3-1.29 4.8-1.29 1.78 0 3.37.43 4.77 1.29 1.4.86 2.49 2.12 3.27 3.78.8 1.64 1.2 3.59 1.2 5.85s-.4 4.22-1.2 5.88c-.78 1.64-1.87 2.89-3.27 3.75-1.4.86-2.99 1.29-4.77 1.29zm0-4.86c1 0 1.79-.48 2.37-1.44.6-.98.9-2.52.9-4.62s-.3-3.63-.9-4.59c-.58-.98-1.37-1.47-2.37-1.47-1.02 0-1.83.49-2.43 1.47-.58.96-.87 2.49-.87 4.59 0 2.1.29 3.64.87 4.62.6.96 1.41 1.44 2.43 1.44zm19.907-2.34v1.59h6.39v2.91h-6.39V61h-5.97v-2.28h-2.79v-2.91h2.79V40h9.6c2.94 0 5.23.6 6.87 1.8 1.64 1.2 2.46 2.97 2.46 5.31 0 2.34-.82 4.11-2.46 5.31-1.64 1.2-3.93 1.8-6.87 1.8h-3.63zm6.96-7.05c0-.8-.3-1.41-.9-1.83-.58-.44-1.41-.66-2.49-.66h-3.57v5.01h3.57c1.08 0 1.91-.22 2.49-.66.6-.44.9-1.06.9-1.86z" fill="#fff"/><defs><filter id="filter0_d_10404_43" x="0" y="0" width="208" height="92.668" filterUnits="userSpaceOnUse" color-interpolation-filters="sRGB"><feFlood flood-opacity="0" result="BackgroundImageFix"/><feColorMatrix in="SourceAlpha" values="0 0 0 0 0 0 0 0 0 0 0 0 0 0 0 0 0 0 127 0" result="hardAlpha"/><feOffset dy="4"/><feGaussianBlur stdDeviation="2"/><feColorMatrix values="0 0 0 0 0 0 0 0 0 0 0 0 0 0 0 0 0 0 0.1 0"/><feBlend in2="BackgroundImageFix" result="effect1_dropShadow_10404_43"/><feBlend in="SourceGraphic" in2="effect1_dropShadow_10404_43" result="shape"/></filter></defs></svg>